<?xml version="1.0" encoding="UTF-8" standalone="no"?>
<!DOCTYPE svg PUBLIC "-//W3C//DTD SVG 1.1//EN" "http://www.w3.org/Graphics/SVG/1.1/DTD/svg11.dtd">
<svg xmlns="http://www.w3.org/2000/svg" version="1.1" viewBox="0.00 0.00 122.00 122.00">
<path fill="#000000" d="
  M 57.59 0.00
  L 64.54 0.00
  C 96.22 2.92 119.79 26.13 122.00 57.84
  L 122.00 64.53
  C 119.42 96.06 95.74 119.72 64.18 122.00
  L 57.96 122.00
  C 26.21 119.84 2.65 96.09 0.00 64.42
  L 0.00 57.70
  C 2.62 26.10 25.95 2.35 57.59 0.00
  Z
  M 68.08 101.67
  L 68.03 104.15
  A 1.33 1.33 0.0 0 0 69.72 105.46
  Q 76.81 103.46 83.78 101.10
  C 85.99 100.36 87.92 98.98 88.31 96.76
  C 90.29 85.48 91.39 76.75 83.62 67.67
  A 1.88 1.87 -42.0 0 1 83.76 65.08
  C 95.14 54.34 96.41 37.65 95.28 22.97
  Q 95.24 22.41 94.69 22.53
  C 90.99 23.34 88.76 25.22 85.78 28.00
  Q 73.42 39.54 74.51 58.13
  A 1.15 1.15 0.0 0 1 72.42 58.85
  C 63.13 45.49 51.44 33.26 37.47 24.51
  Q 33.26 21.87 28.81 19.11
  A 1.20 1.20 0.0 0 0 26.98 20.09
  C 26.35 39.18 44.67 52.24 60.37 59.20
  Q 61.31 59.61 61.92 60.00
  A 0.52 0.52 0.0 0 1 61.68 60.96
  Q 54.21 61.59 47.83 65.12
  C 39.07 69.97 32.05 82.06 42.22 89.78
  Q 47.11 93.49 53.03 95.11
  Q 55.07 95.66 54.71 97.74
  Q 54.08 101.40 54.98 104.83
  A 0.87 0.86 -17.5 0 0 56.13 105.42
  L 67.30 101.13
  A 0.57 0.57 0.0 0 1 68.08 101.67
  Z
  M 54.79 107.10
  L 48.39 104.27
  A 1.26 1.25 9.8 0 0 46.63 105.51
  L 47.20 112.54
  A 1.60 1.59 -13.3 0 0 49.39 113.89
  L 55.75 111.28
  A 1.10 1.09 -38.3 0 1 56.80 111.40
  L 62.98 115.83
  A 1.32 1.32 0.0 0 0 65.06 114.70
  L 64.69 106.43
  A 1.65 1.65 0.0 0 0 62.30 105.03
  Q 59.20 106.60 55.81 107.22
  Q 55.28 107.32 54.79 107.10
  Z
  M 86.9458 106.8977
  A 1.63 1.63 0.0 0 0 85.0170 105.6354
  L 69.3159 108.9156
  A 1.63 1.63 0.0 0 0 68.0537 110.8444
  L 68.0742 110.9423
  A 1.63 1.63 0.0 0 0 70.0030 112.2046
  L 85.7041 108.9244
  A 1.63 1.63 0.0 0 0 86.9663 106.9956
  L 86.9458 106.8977
  Z"
/>
<ellipse fill="#000000" cx="0.00" cy="0.00" transform="translate(53.43,73.50) rotate(1.5)" rx="4.00" ry="3.32"/>
</svg>
