<?xml version="1.0" encoding="UTF-8" standalone="no"?>
<!DOCTYPE svg PUBLIC "-//W3C//DTD SVG 1.1//EN" "http://www.w3.org/Graphics/SVG/1.1/DTD/svg11.dtd">
<svg xmlns="http://www.w3.org/2000/svg" version="1.1" viewBox="0.00 0.00 183.00 186.00">
<path fill="#000000" d="
  M 0.00 0.00
  L 183.00 0.00
  L 183.00 186.00
  L 0.00 186.00
  L 0.00 0.00
  Z
  M 65.55 96.02
  C 59.70 108.76 73.03 115.33 82.49 118.35
  A 1.24 1.23 19.3 0 1 83.27 119.96
  Q 81.63 124.26 83.68 128.31
  A 0.83 0.82 -24.4 0 0 84.73 128.70
  L 96.50 123.96
  A 0.78 0.78 0.0 0 1 97.57 124.77
  L 97.24 127.55
  A 1.25 1.25 0.0 0 0 98.80 128.91
  Q 107.69 126.58 115.92 123.43
  C 119.34 122.12 118.92 119.54 119.73 116.66
  Q 124.34 100.31 113.90 87.45
  A 1.25 1.25 0.0 0 1 114.06 85.72
  C 123.79 77.30 125.54 67.53 126.55 54.65
  Q 127.10 47.49 126.61 40.32
  A 0.95 0.95 0.0 0 0 125.23 39.54
  Q 112.50 46.05 106.91 58.71
  C 104.42 64.34 104.34 71.41 104.08 77.74
  Q 104.03 78.83 103.74 79.28
  Q 103.21 80.09 102.67 79.28
  Q 84.33 51.76 55.24 36.05
  A 1.40 1.39 14.9 0 0 53.18 37.24
  C 52.93 48.37 59.11 58.31 67.55 65.89
  C 74.07 71.74 82.64 75.88 90.85 79.76
  Q 91.72 80.17 90.91 80.68
  Q 89.84 81.34 88.00 81.23
  Q 85.44 81.07 77.97 84.22
  Q 69.27 87.89 65.55 96.02
  Z
  M 83.55 130.77
  L 75.57 127.05
  A 0.86 0.86 0.0 0 0 74.34 127.90
  L 75.09 136.60
  Q 75.24 138.26 76.83 137.77
  C 80.06 136.78 83.93 133.83 87.23 136.24
  Q 89.72 138.07 92.16 140.08
  A 1.37 1.36 -72.5 0 0 94.39 138.92
  L 93.64 129.01
  A 1.17 1.17 0.0 0 0 92.06 128.00
  L 84.62 130.81
  Q 84.07 131.02 83.55 130.77
  Z
  M 117.8068 130.1657
  A 1.74 1.74 0.0 0 0 115.7430 128.8255
  L 98.8602 132.4140
  A 1.74 1.74 0.0 0 0 97.5200 134.4778
  L 97.5532 134.6343
  A 1.74 1.74 0.0 0 0 99.6170 135.9745
  L 116.4998 132.3860
  A 1.74 1.74 0.0 0 0 117.8400 130.3222
  L 117.8068 130.1657
  Z"
/>
<ellipse fill="#000000" cx="0.00" cy="0.00" transform="translate(81.72,94.45) rotate(0.4)" rx="4.18" ry="3.71"/>
</svg>
